<!DOCTYPE svg PUBLIC "-//W3C//DTD SVG 20010904//EN" "http://www.w3.org/TR/2001/REC-SVG-20010904/DTD/svg10.dtd">
<svg version="1.0" xmlns="http://www.w3.org/2000/svg" width="516px" height="516px" viewBox="0 0 5160 5160" preserveAspectRatio="xMidYMid meet">
<g id="layerbg1" fill="#000000" stroke="none">
 <path d="M0 5016 c0 -86 4 -147 10 -151 6 -3 10 -18 10 -32 0 -14 13 -42 29 -62 15 -20 38 -55 50 -78 19 -38 25 -43 57 -43 19 0 44 -5 55 -11 38 -20 120 -27 148 -14 51 25 101 36 136 29 45 -8 56 -24 17 -24 -30 0 -58 -22 -48 -38 9 -15 118 -23 134 -10 10 9 21 8 45 -4 33 -17 51 -22 156 -42 45 -8 84 -9 133 -2 49 6 76 6 94 -3 14 -6 30 -9 35 -6 16 10 99 -46 105 -70 3 -13 14 -31 25 -41 10 -9 19 -23 19 -31 0 -27 63 -42 199 -45 117 -3 134 -1 145 15 19 24 36 21 36 -7 0 -32 53 -76 90 -76 29 0 40 11 101 98 47 68 54 60 70 -89 11 -103 2 -184 -27 -241 -19 -36 -28 -40 -59 -26 -21 9 -29 9 -41 -4 -30 -30 12 -203 65 -268 l21 -25 45 50 c25 28 63 88 85 135 103 217 186 343 272 413 139 111 343 149 495 91 37 -14 86 -31 108 -39 42 -13 120 -61 193 -117 64 -49 141 -164 142 -213 0 -11 9 -33 20 -50 17 -27 19 -43 15 -184 -3 -84 -1 -159 3 -165 5 -6 17 -39 27 -73 32 -110 5 -167 -104 -220 -61 -30 -207 -165 -197 -182 10 -16 58 -14 82 3 27 19 133 56 160 56 32 0 135 -38 168 -61 27 -20 30 -21 62 -5 19 8 34 20 34 26 0 6 16 27 36 47 32 32 36 40 31 75 -4 32 -3 37 8 28 30 -25 47 19 22 55 -10 12 -16 14 -21 7 -13 -22 -26 -12 -26 21 0 17 -14 63 -30 102 -17 38 -30 75 -30 81 0 7 -13 42 -30 79 -33 73 -37 94 -17 91 6 0 13 4 14 9 2 6 -3 10 -11 10 -23 0 -47 27 -72 79 -18 38 -21 52 -12 63 9 11 7 15 -9 19 -26 7 -59 62 -45 76 7 7 12 3 17 -11 3 -12 17 -29 31 -37 27 -18 84 -98 84 -118 0 -7 10 -21 21 -32 42 -38 82 -108 93 -163 8 -42 17 -58 33 -66 14 -6 22 -18 22 -35 1 -14 3 -108 6 -210 5 -205 1 -258 -19 -241 -21 17 -36 -8 -36 -60 0 -27 6 -51 14 -58 12 -10 18 -34 32 -141 5 -39 -11 -192 -28 -260 -20 -80 -89 -201 -149 -260 -30 -30 -66 -70 -78 -88 l-23 -33 -22 20 c-12 12 -28 21 -34 21 -13 0 -23 34 -19 64 4 31 -16 28 -57 -9 -46 -40 -72 -51 -90 -36 -7 6 -37 12 -67 14 -62 3 -153 45 -199 91 -34 32 -40 60 -12 52 48 -13 112 -22 219 -29 17 -1 35 -6 39 -10 22 -22 107 9 160 58 19 18 38 25 65 25 21 0 40 4 43 9 6 9 -53 59 -94 81 -14 7 -46 32 -71 54 -65 58 -140 97 -203 103 -49 5 -66 2 -175 -33 -29 -10 8 -27 66 -31 106 -7 266 -53 290 -83 21 -26 14 -37 -29 -48 -34 -9 -47 -8 -65 3 -34 22 -135 19 -178 -5 -28 -16 -35 -17 -35 -5 0 8 -20 28 -45 45 -35 24 -49 29 -59 20 -11 -8 -23 -5 -51 15 -44 29 -49 30 -95 7 -26 -13 -42 -32 -63 -77 -26 -53 -27 -62 -15 -86 34 -68 238 -207 328 -223 19 -3 46 -9 60 -12 80 -17 129 -20 146 -7 25 18 30 17 44 -16 15 -37 6 -53 -26 -45 -18 5 -26 1 -31 -12 -10 -27 -45 -54 -64 -48 -22 6 -45 -23 -59 -76 -7 -25 -33 -82 -58 -128 -76 -133 -101 -186 -101 -210 -1 -12 -8 -34 -17 -47 -10 -16 -16 -46 -16 -86 0 -59 -1 -61 -32 -74 -39 -17 -53 -32 -58 -64 -5 -40 -22 -34 -48 16 -14 27 -32 57 -41 68 -9 11 -19 36 -22 55 -9 60 -25 90 -47 90 -11 0 -23 8 -27 18 -3 9 -14 35 -24 57 -10 22 -34 81 -54 130 -20 50 -49 109 -65 132 -17 23 -30 45 -30 51 0 5 -9 17 -19 26 -28 25 -35 4 -16 -49 18 -55 20 -108 3 -103 -6 2 -25 35 -41 74 -36 87 -57 110 -83 94 -17 -10 -25 -7 -61 29 -22 23 -47 41 -55 41 -14 0 -41 -29 -97 -100 l-19 -24 -21 34 c-11 19 -21 41 -21 48 0 17 -49 102 -59 102 -4 0 -11 -4 -16 -9 -6 -5 -19 -5 -30 -1 -38 14 -54 138 -30 232 6 24 3 29 -26 41 -19 8 -48 26 -65 40 -18 15 -38 27 -46 27 -30 0 -39 50 -37 199 2 178 30 389 65 494 28 86 29 140 2 145 -25 5 -46 -36 -51 -100 -5 -67 -21 -95 -45 -76 -12 10 -19 7 -44 -22 -16 -19 -34 -53 -40 -75 -15 -50 -48 -105 -103 -170 -23 -27 -52 -70 -65 -95 -13 -25 -31 -51 -41 -58 -10 -7 -26 -40 -35 -73 -9 -33 -31 -79 -48 -102 -40 -54 -66 -113 -56 -123 14 -15 22 -102 10 -109 -6 -4 -8 -21 -5 -38 7 -42 -27 -86 -50 -67 -19 16 -45 6 -45 -17 1 -10 9 -43 20 -73 13 -39 16 -60 9 -73 -7 -12 -6 -36 1 -73 15 -73 3 -105 -51 -128 -22 -10 -43 -24 -46 -32 -9 -23 16 -45 43 -38 13 3 32 3 41 -1 16 -6 14 -9 -9 -21 -16 -8 -28 -19 -28 -25 0 -6 -7 -8 -16 -5 -31 12 -35 -6 -8 -42 27 -34 28 -42 34 -186 3 -83 11 -160 17 -171 26 -47 37 -104 24 -131 -14 -32 -1 -50 64 -89 42 -24 63 -46 140 -146 22 -29 72 -87 111 -129 79 -84 116 -146 107 -178 -3 -13 3 -31 16 -48 12 -15 21 -31 21 -35 0 -23 65 -111 92 -125 17 -9 49 -33 73 -55 33 -30 41 -44 38 -63 -6 -31 22 -48 97 -57 98 -12 135 -22 147 -39 7 -11 21 -16 35 -13 13 2 67 7 121 11 78 6 96 5 92 -5 -3 -7 -8 -19 -11 -27 -3 -9 3 -19 16 -26 24 -13 100 7 156 41 38 23 51 24 34 4 -15 -18 -5 -35 22 -35 16 0 97 50 203 125 8 5 17 7 20 4 9 -9 -43 -106 -77 -145 -25 -28 -27 -35 -14 -40 18 -7 71 28 86 57 7 11 21 19 38 19 15 0 46 9 70 20 38 17 42 23 42 54 0 35 13 55 25 36 11 -18 24 -11 43 26 17 33 19 34 33 18 8 -9 21 -35 30 -58 13 -37 18 -41 45 -38 42 4 80 35 76 63 l-2 23 24 -23 c19 -18 33 -22 77 -19 34 2 53 7 52 14 -1 7 6 10 16 7 25 -6 35 12 20 38 -11 21 -9 21 37 -5 35 -19 61 -27 89 -25 22 1 53 -1 69 -6 18 -5 36 -4 46 3 10 6 23 7 30 2 9 -6 25 1 46 20 21 18 54 33 91 41 70 15 116 36 107 50 -3 5 -14 7 -24 4 -31 -10 -131 -15 -126 -6 3 4 42 11 86 14 99 8 122 19 118 55 -2 21 -9 28 -30 30 -16 2 -28 6 -28 10 0 19 152 82 197 82 16 0 27 8 32 24 5 13 22 32 37 43 19 14 24 24 18 34 -5 8 -9 21 -9 29 0 8 -12 21 -28 28 -23 11 -26 16 -16 33 8 16 13 18 24 9 20 -17 40 -2 23 17 -10 12 -9 18 7 29 10 8 31 14 45 14 15 0 36 10 49 24 l22 24 -23 16 c-13 9 -22 20 -21 24 1 4 -7 7 -17 6 -19 -1 -19 0 -3 20 10 11 25 26 33 33 13 11 12 15 -7 32 l-22 18 27 25 c15 14 32 24 39 21 14 -5 26 13 18 27 -5 8 -11 7 -21 -1 -11 -9 -14 -8 -14 5 0 9 23 30 50 47 28 17 50 36 50 43 0 25 -32 56 -58 56 -15 0 -33 4 -41 9 -9 6 -24 6 -38 0 l-25 -9 21 26 c26 33 12 57 -25 48 -32 -8 -30 9 4 35 25 19 26 22 10 34 -10 8 -14 18 -9 23 4 5 13 38 20 74 7 35 18 76 26 90 7 14 16 67 19 117 6 76 5 97 -8 115 -9 12 -16 32 -16 43 0 12 -11 32 -25 45 -31 29 -33 71 -4 125 22 42 22 50 35 325 6 136 5 160 -10 189 -11 20 -15 43 -11 61 3 16 1 48 -6 72 -7 23 -13 60 -15 82 -1 28 -10 46 -32 65 -16 15 -37 39 -46 53 -11 17 -23 25 -33 21 -11 -4 -14 -2 -11 8 3 8 -6 43 -19 79 -13 36 -31 106 -39 155 -8 50 -24 109 -35 133 -14 29 -20 55 -17 80 3 23 -2 52 -13 77 -26 58 -39 114 -39 165 0 25 -7 55 -15 67 -11 16 -14 57 -14 196 l0 175 27 11 c15 6 59 16 97 22 74 12 111 27 161 65 18 13 54 28 80 34 53 12 104 39 146 78 23 21 42 27 105 32 71 6 154 28 193 52 58 34 89 39 288 49 165 8 216 14 252 29 25 11 68 26 95 33 l50 14 3 312 2 311 -789 0 c-516 0 -792 -3 -796 -10 -3 -5 -15 -10 -26 -10 -10 0 -19 5 -19 10 0 6 -16 10 -36 10 -30 0 -34 -3 -29 -19 3 -11 1 -22 -5 -26 -7 -4 -7 -12 0 -26 19 -35 -14 -55 -40 -24 -12 14 -24 14 -66 -2 -17 -6 -84 56 -84 78 0 18 -14 19 -379 19 -209 0 -381 -4 -383 -8 -1 -5 -30 -29 -63 -54 -98 -74 -152 -140 -200 -241 -24 -51 -61 -122 -83 -160 -22 -37 -54 -102 -72 -145 -18 -42 -39 -92 -47 -110 -8 -19 -21 -53 -28 -75 -13 -42 -13 -42 -8 28 3 45 0 90 -10 126 -26 96 -10 149 96 310 71 109 165 210 272 296 l40 32 -1202 0 -1203 1 0 -144z m3218 -2869 c-13 -12 -30 -38 -37 -57 -14 -36 -58 -90 -73 -90 -4 0 -8 13 -8 29 0 17 -5 33 -10 36 -11 7 -3 52 12 72 5 6 27 14 49 18 21 4 49 15 61 25 19 16 24 16 26 4 2 -8 -7 -25 -20 -37z m-1459 -162 c0 -31 -2 -36 -9 -20 -5 11 -9 38 -9 60 0 31 2 36 9 20 5 -11 9 -38 9 -60z m-374 -427 c8 -18 19 -40 24 -48 13 -20 51 -99 51 -105 0 -3 -6 -5 -13 -5 -22 0 -74 91 -80 143 -8 55 -3 59 18 15z m522 -171 c-11 -35 -57 14 -57 60 1 14 7 11 31 -15 17 -19 28 -39 26 -45z m970 23 c13 -20 7 -54 -8 -44 -5 3 -7 9 -4 14 3 5 1 11 -5 15 -12 7 -14 35 -2 35 4 0 13 -9 19 -20z m-194 -25 c-1 -16 3 -35 9 -42 15 -19 4 -27 -27 -19 -19 5 -25 13 -25 35 0 42 10 62 29 59 11 -3 15 -13 14 -33z m617 -409 c0 -8 -7 -17 -16 -20 -30 -11 -37 -6 -19 14 21 23 35 26 35 6z"/>
 <path d="M2455 4125 c-70 -18 -117 -79 -86 -110 6 -6 50 -8 102 -5 89 5 97 4 180 -31 48 -20 99 -45 114 -57 21 -16 31 -19 41 -11 9 8 27 2 68 -20 33 -19 57 -27 61 -21 17 27 -33 149 -73 180 -80 64 -296 103 -407 75z"/>
 <path d="M2571 3873 c-19 -3 -44 -11 -57 -20 -22 -14 -23 -17 -9 -43 20 -39 31 -44 65 -30 44 18 92 5 112 -30 17 -29 17 -30 -6 -45 -26 -17 -39 -15 -113 23 -46 24 -55 25 -86 14 -18 -6 -42 -12 -53 -12 -11 0 -31 -11 -44 -25 -27 -29 -35 -30 -91 -12 -35 11 -39 15 -34 37 11 43 11 44 -13 48 -31 5 -86 -18 -159 -65 -66 -43 -121 -65 -129 -52 -17 29 -82 -17 -103 -74 -16 -41 -13 -143 4 -176 8 -16 45 -56 82 -90 67 -61 108 -77 119 -47 5 14 -20 113 -50 191 -21 55 -19 85 7 116 l22 27 123 -5 c67 -3 122 -9 122 -13 0 -4 -11 -22 -24 -41 -79 -110 -99 -170 -64 -192 13 -9 29 -7 66 6 103 37 207 32 257 -14 30 -26 111 -60 148 -61 44 -1 65 -13 114 -67 33 -36 44 -43 54 -34 13 13 14 25 23 233 l6 125 32 -2 c18 -1 56 -7 84 -13 27 -7 59 -11 70 -9 40 8 23 85 -39 172 -11 16 -50 43 -91 63 -39 18 -99 54 -134 79 -59 42 -68 45 -120 43 -31 0 -72 -3 -91 -5z m207 -167 c7 -33 -15 -42 -37 -15 -27 33 -26 41 6 37 18 -2 29 -10 31 -22z"/>
 <path d="M1820 2847 c-63 -21 -44 -40 55 -54 50 -7 114 -20 143 -29 47 -14 56 -15 68 -2 13 12 11 17 -8 35 -46 42 -100 63 -163 62 -33 0 -76 -5 -95 -12z"/>
 <path d="M1616 2737 c-15 -11 -16 -17 -7 -35 14 -26 120 -86 181 -102 25 -7 58 -19 74 -28 21 -11 53 -15 105 -13 l75 1 -23 -24 c-28 -30 -136 -73 -203 -82 -56 -8 -77 -26 -57 -50 12 -14 33 -16 154 -12 115 4 149 9 189 27 91 40 146 134 110 188 -17 27 -65 31 -84 8 -12 -14 -15 -14 -31 1 -10 9 -16 20 -14 24 9 15 -25 32 -49 26 -22 -5 -101 10 -147 29 -10 3 -36 1 -58 -5 -39 -10 -47 -9 -111 25 -79 40 -80 40 -104 22z"/>
 </g>
<g id="layerbg2" fill="#ffffff" stroke="none">
 <path d="M2350 5133 c-90 -68 -205 -193 -277 -302 -107 -163 -122 -212 -95 -315 13 -52 13 -76 3 -160 -16 -141 7 -155 44 -26 10 36 26 83 35 105 10 22 32 75 50 117 18 43 50 108 72 145 22 38 59 109 83 159 49 105 90 154 192 231 40 30 73 59 73 64 0 5 -33 9 -72 9 -63 0 -78 -4 -108 -27z"/>
 <path d="M3250 5140 c0 -20 33 -58 76 -86 16 -11 28 -12 49 -4 22 8 31 7 45 -5 9 -8 24 -15 33 -15 23 0 40 35 28 58 -7 13 -7 22 0 29 5 5 7 17 3 26 -5 15 -23 17 -120 17 -108 0 -114 -1 -114 -20z"/>
 <path d="M3510 5152 c0 -14 23 -32 40 -32 9 0 25 9 35 20 18 20 17 20 -28 20 -26 0 -47 -4 -47 -8z"/>
 <path d="M0 2446 l0 -2446 2580 0 2580 0 0 2279 0 2280 -63 -18 c-34 -10 -78 -26 -97 -34 -25 -11 -94 -19 -242 -26 -199 -10 -230 -15 -288 -49 -39 -24 -122 -46 -193 -52 -63 -5 -82 -11 -105 -32 -42 -39 -93 -66 -146 -78 -26 -6 -62 -21 -80 -34 -51 -39 -87 -53 -165 -66 -41 -7 -90 -19 -109 -27 l-34 -14 3 -84 c2 -46 1 -81 -4 -78 -12 8 -20 -28 -8 -40 15 -15 14 -60 -1 -75 -9 -9 -9 -15 0 -24 7 -7 12 -23 12 -37 0 -15 7 -35 15 -45 8 -11 15 -39 15 -62 0 -56 20 -142 41 -177 11 -20 15 -41 12 -67 -4 -27 1 -52 15 -82 12 -24 28 -83 36 -133 8 -49 26 -119 39 -155 13 -36 22 -70 20 -77 -2 -7 10 -22 29 -33 18 -11 29 -20 24 -20 -5 0 -1 -9 10 -21 10 -12 19 -24 18 -28 0 -3 7 -5 18 -3 17 3 23 -9 20 -48 0 -8 6 -39 14 -68 9 -29 13 -65 9 -81 -4 -19 0 -41 11 -62 15 -29 16 -53 10 -189 -13 -275 -13 -283 -35 -325 -29 -54 -27 -96 4 -125 14 -13 25 -33 25 -45 0 -11 7 -31 16 -43 13 -18 14 -39 8 -115 -3 -50 -12 -103 -19 -117 -7 -14 -18 -52 -25 -85 -7 -33 -17 -70 -22 -82 -6 -11 -7 -26 -4 -32 4 -6 -2 -23 -13 -37 -26 -34 -17 -48 25 -41 19 3 34 3 34 0 0 -3 -21 -26 -47 -49 -33 -30 -44 -47 -37 -54 7 -7 22 -2 49 15 40 28 47 29 107 19 46 -8 58 -33 26 -56 -65 -48 -78 -61 -78 -75 0 -9 -11 -31 -25 -49 -25 -33 -25 -34 -6 -46 19 -12 19 -13 -10 -50 -29 -36 -31 -61 -6 -56 7 1 22 -4 34 -12 28 -18 13 -40 -27 -40 -30 0 -98 -49 -117 -83 -14 -27 0 -57 27 -57 21 0 27 -15 10 -25 -6 -4 -9 -14 -6 -23 9 -29 -35 -67 -94 -81 -118 -28 -212 -111 -137 -119 20 -3 27 -8 25 -20 -2 -13 -19 -19 -68 -25 -117 -14 -153 -22 -158 -35 -2 -7 10 -17 27 -23 l32 -11 -42 -21 c-22 -11 -43 -26 -46 -33 -4 -10 -10 -11 -23 -4 -13 7 -21 7 -26 -1 -4 -7 -19 -8 -38 -4 -17 3 -51 6 -77 5 -31 0 -59 7 -90 24 -50 28 -100 37 -106 19 -2 -6 10 -19 26 -28 35 -18 41 -30 11 -20 -13 4 -22 1 -26 -9 -10 -27 -86 -21 -114 9 -28 30 -44 23 -36 -16 6 -31 -8 -44 -54 -50 -20 -3 -26 2 -33 28 -5 17 -22 44 -38 59 l-28 27 -22 -37 c-18 -31 -24 -35 -36 -24 -12 10 -18 9 -29 -7 -8 -10 -14 -32 -14 -47 0 -33 -23 -46 -46 -27 -13 10 -16 9 -21 -9 -3 -15 -13 -22 -29 -22 -14 0 -32 -11 -45 -30 -12 -16 -28 -31 -36 -34 -8 -3 -3 8 10 27 13 17 34 52 46 76 20 40 21 45 6 60 -11 11 -20 13 -29 6 -105 -74 -188 -125 -202 -125 -15 0 -13 5 10 29 39 40 20 45 -47 11 -72 -36 -154 -63 -167 -55 -7 4 -7 13 1 27 22 41 -25 49 -188 29 -53 -6 -62 -5 -66 9 -4 17 -21 21 -157 38 -66 9 -83 18 -77 43 4 13 -12 34 -54 73 -32 30 -67 57 -76 60 -17 5 -73 87 -73 105 0 5 -9 20 -21 35 -13 17 -19 35 -15 49 7 31 -35 101 -114 186 -36 38 -83 92 -105 121 -78 100 -111 134 -162 167 -29 18 -53 36 -53 38 0 2 5 16 12 30 12 26 0 84 -25 130 -6 11 -14 88 -17 172 -5 127 -9 156 -24 172 -18 20 -17 21 23 59 41 38 41 39 21 57 -14 13 -28 16 -51 11 -42 -8 -34 14 14 36 55 27 72 67 58 139 -8 38 -9 65 -2 76 6 13 3 37 -11 81 -22 65 -19 84 8 61 14 -11 20 -9 45 21 23 28 28 42 24 67 -3 18 -1 34 5 38 12 7 4 94 -10 109 -10 10 16 69 56 123 17 23 39 69 48 102 9 32 23 62 31 65 8 3 26 29 41 58 15 29 46 76 69 103 54 64 88 120 103 170 17 57 47 94 63 78 19 -19 25 -16 48 20 22 35 27 27 11 -19 -20 -58 -47 -303 -49 -444 -2 -161 11 -220 49 -220 11 0 40 -15 64 -34 25 -19 51 -36 58 -38 10 -4 10 -10 0 -32 -20 -45 -8 -168 22 -214 12 -19 49 -31 62 -20 8 6 19 -2 33 -25 24 -40 29 -66 8 -48 -8 6 -17 8 -20 4 -13 -12 -7 -93 9 -131 15 -35 16 -36 30 -18 8 11 14 36 14 55 l0 36 20 -25 20 -25 50 55 c27 30 50 58 50 63 1 20 37 2 72 -35 35 -38 41 -41 59 -30 11 7 23 11 28 8 4 -3 20 -37 36 -75 31 -78 55 -107 81 -97 14 5 16 16 11 62 l-6 55 26 -38 c14 -21 41 -76 60 -123 32 -81 65 -157 82 -190 4 -8 17 -19 29 -25 23 -10 42 -52 42 -90 0 -13 6 -28 14 -34 8 -7 27 -36 42 -67 36 -72 49 -82 74 -59 11 10 20 29 20 42 0 16 8 27 27 34 51 19 61 36 61 100 0 38 6 68 16 84 9 13 16 35 17 47 0 25 27 81 98 205 25 43 52 103 61 133 14 45 21 55 37 53 11 -1 36 13 56 31 26 23 38 29 41 19 9 -22 24 -15 41 21 15 31 15 37 1 64 -21 41 -33 46 -59 30 -21 -13 -69 -11 -147 6 -14 3 -41 9 -60 12 -88 16 -297 157 -315 213 -3 10 6 42 19 71 18 39 33 57 57 67 41 17 40 17 85 -13 28 -19 42 -24 53 -17 20 13 81 -25 81 -49 0 -27 16 -30 55 -8 44 25 144 28 178 5 20 -12 30 -13 67 -2 23 7 48 20 53 28 15 24 -24 73 -70 88 -81 27 -187 51 -227 52 l-41 1 35 15 c78 34 194 -1 291 -88 24 -22 60 -49 80 -59 19 -10 41 -26 48 -34 12 -14 10 -16 -12 -16 -15 0 -41 -13 -59 -29 -42 -36 -110 -73 -89 -48 11 14 11 18 -3 23 -9 4 -24 0 -34 -8 -10 -8 -34 -13 -57 -11 -82 4 -153 12 -199 23 -53 12 -66 8 -66 -21 0 -53 156 -151 249 -156 30 -2 60 -8 67 -14 18 -15 50 -2 94 37 36 33 37 33 32 9 -3 -20 4 -33 33 -59 34 -31 35 -35 18 -44 -10 -6 -35 -13 -55 -17 -20 -4 -45 -17 -56 -28 -23 -26 -36 -73 -22 -82 5 -3 10 -22 10 -41 0 -21 6 -37 14 -40 23 -9 83 46 101 92 8 22 27 51 40 64 14 13 25 32 25 42 0 24 39 77 110 148 59 59 128 182 148 260 17 68 33 221 28 260 -14 107 -20 131 -32 141 -9 7 -14 31 -14 62 0 49 0 50 20 32 19 -17 20 -17 27 1 8 20 10 363 3 454 -4 45 -9 57 -27 65 -17 7 -24 21 -29 55 -7 48 -47 121 -89 160 -14 13 -25 29 -25 36 0 20 -81 134 -95 134 -7 0 -18 14 -24 30 -11 33 -14 35 -42 20 -26 -14 -24 -30 10 -77 16 -23 28 -43 25 -45 -6 -7 42 -103 60 -117 9 -7 16 -24 16 -36 0 -13 14 -53 30 -90 17 -37 30 -72 30 -79 0 -6 13 -43 29 -81 15 -39 34 -109 41 -157 l12 -87 -44 -51 c-52 -61 -69 -67 -105 -41 -32 23 -135 61 -167 61 -27 0 -133 -37 -160 -56 -11 -8 -32 -14 -45 -14 -22 0 -16 9 49 70 41 38 80 70 86 70 7 0 39 18 72 40 63 42 92 85 92 137 0 30 -23 114 -41 145 -5 10 -7 85 -4 171 4 139 2 155 -15 182 -11 17 -20 39 -20 50 0 11 -7 33 -15 49 -10 20 -12 33 -5 41 12 14 3 25 -20 25 -9 0 -23 12 -31 26 -30 57 -200 179 -295 214 -27 9 -76 27 -108 39 -109 39 -286 22 -399 -40 -141 -76 -258 -228 -371 -479 -18 -41 -51 -96 -72 -122 -44 -53 -55 -51 -84 17 -19 45 -45 183 -36 192 10 11 36 -7 36 -25 0 -22 45 -68 54 -54 3 5 1 23 -5 40 -9 25 -6 35 14 65 14 20 30 65 37 100 20 107 -11 307 -48 307 -13 0 -57 -50 -86 -97 -21 -34 -32 -43 -54 -43 -37 0 -72 26 -72 54 0 46 -43 61 -73 25 -17 -19 -25 -20 -125 -14 -159 9 -170 11 -187 45 -9 17 -19 30 -23 30 -4 0 -13 13 -19 29 -12 32 -83 83 -123 88 -14 1 -38 5 -55 8 -16 4 -55 2 -85 -2 -52 -9 -88 -5 -225 24 -16 3 -40 13 -53 21 -18 12 -28 12 -45 4 -15 -8 -38 -9 -72 -3 -36 6 -42 9 -19 10 68 2 63 54 -7 65 -40 6 -88 -3 -140 -29 -28 -13 -110 -6 -148 14 -11 6 -33 11 -50 11 -24 0 -34 7 -47 33 -9 17 -29 48 -44 67 -15 19 -31 49 -34 67 -4 17 -14 37 -22 44 -12 10 -14 -310 -14 -2435z m2705 1648 c97 -21 156 -53 177 -95 19 -38 39 -101 34 -106 -2 -2 -25 8 -50 22 -35 20 -51 24 -60 16 -10 -8 -20 -5 -41 11 -15 12 -66 37 -114 57 -83 35 -91 36 -179 31 -79 -4 -92 -3 -92 11 0 69 146 93 325 53z m77 -279 c35 -25 95 -60 133 -79 65 -31 74 -39 103 -94 18 -33 32 -70 32 -82 0 -25 -5 -25 -124 0 -83 16 -86 12 -92 -141 -9 -198 -9 -208 -16 -214 -3 -3 -20 12 -38 35 -37 47 -72 67 -117 68 -37 1 -118 34 -148 61 -46 42 -125 51 -215 25 -99 -28 -110 -29 -110 -7 0 23 43 109 70 138 9 11 23 31 30 44 20 40 -1 48 -137 54 l-123 5 -32 -40 c-30 -39 -31 -42 -21 -87 6 -25 20 -71 31 -101 33 -92 36 -120 16 -120 -22 0 -121 85 -145 124 -52 85 4 281 68 240 22 -14 61 0 135 49 62 39 121 67 145 67 11 0 13 -7 8 -29 -7 -32 -1 -38 55 -58 50 -18 64 -16 90 12 13 14 33 25 44 25 11 0 35 6 53 12 31 11 39 10 86 -14 70 -37 90 -41 113 -23 28 21 43 18 54 -10 6 -15 17 -25 30 -25 29 0 47 42 31 76 -10 23 -16 26 -49 21 -34 -4 -40 -1 -54 24 -20 34 -74 47 -119 29 -26 -11 -32 -11 -40 1 -25 40 9 54 133 58 52 1 62 -3 120 -44z m-1242 -514 c0 -37 -20 -92 -31 -86 -8 5 -6 29 7 93 6 32 24 27 24 -7z m498 -495 c24 -15 41 -30 38 -33 -3 -3 -27 1 -53 10 -26 8 -86 21 -133 28 -65 10 -79 15 -60 21 14 4 57 6 95 5 57 -2 78 -8 113 -31z m-318 -111 c64 -34 72 -35 111 -25 22 6 48 8 58 5 49 -20 124 -34 152 -28 18 3 30 2 27 -3 -4 -5 4 -22 17 -39 23 -28 25 -28 43 -12 23 21 68 22 76 2 10 -27 -6 -79 -33 -109 -49 -53 -101 -68 -258 -74 -91 -3 -143 -1 -143 5 0 6 21 13 48 17 75 10 175 53 211 90 18 19 30 39 26 45 -4 7 -36 11 -85 10 -56 -2 -85 2 -102 13 -12 8 -40 18 -61 22 -41 8 -167 70 -178 88 -9 14 -2 28 12 28 5 0 40 -16 79 -35z"/>
 <path d="M3618 4186 c-8 -20 -9 -29 0 -38 16 -16 44 9 40 35 -5 31 -26 32 -40 3z"/>
 <path d="M1695 1818 c-9 -23 2 -51 17 -46 18 6 20 22 4 43 -14 19 -15 19 -21 3z"/>
 <path d="M1725 1710 c-10 -16 16 -43 28 -31 11 11 2 41 -12 41 -5 0 -13 -5 -16 -10z"/>
 <path d="M1352 1597 c-20 -23 1 -107 39 -162 36 -50 74 -70 85 -42 4 13 -20 74 -47 117 -5 8 -16 29 -24 46 -20 43 -39 58 -53 41z"/>
 <path d="M2334 1565 c-4 -9 1 -24 12 -36 16 -18 19 -18 33 -4 12 12 13 19 5 33 -15 23 -43 27 -50 7z"/>
 <path d="M1634 1538 c-4 -6 0 -16 9 -23 10 -7 17 -17 17 -22 0 -6 7 -16 15 -23 21 -17 39 1 30 29 -8 25 -62 54 -71 39z"/>
 <path d="M1815 1520 c-3 -5 0 -20 7 -32 6 -13 11 -31 10 -40 -4 -20 20 -69 42 -87 11 -9 20 -10 35 -1 28 14 26 32 -4 68 -14 17 -25 39 -25 50 0 11 -11 27 -25 36 -28 19 -32 19 -40 6z"/>
 <path d="M2211 1497 c-16 -20 19 -63 43 -54 22 9 17 36 -10 54 -18 12 -23 12 -33 0z"/>
 <path d="M2154 1476 c-10 -25 31 -65 48 -48 10 10 7 18 -14 39 -25 24 -28 25 -34 9z"/>
 <path d="M1604 1465 c-4 -8 -10 -13 -14 -10 -5 3 -12 1 -15 -5 -10 -15 15 -42 33 -35 8 3 21 0 29 -6 23 -20 33 3 18 39 -15 33 -42 43 -51 17z"/>
 <path d="M1905 1471 c-10 -17 15 -45 29 -31 7 7 5 15 -6 26 -11 11 -18 13 -23 5z"/>
 <path d="M2837 1443 c-14 -13 -6 -48 19 -85 15 -21 30 -35 35 -32 5 3 7 9 4 14 -3 5 -1 18 4 29 21 38 -34 103 -62 74z"/>
 <path d="M2636 1418 c-24 -33 -20 -84 6 -102 31 -22 54 -20 73 6 14 21 14 24 0 34 -9 7 -13 18 -9 28 7 18 -21 56 -42 56 -7 0 -20 -10 -28 -22z"/>
 <path d="M2065 1381 c-10 -17 15 -45 29 -31 7 7 5 15 -6 26 -11 11 -18 13 -23 5z"/>
 <path d="M1974 1326 c-4 -10 -2 -22 4 -28 8 -8 13 -7 18 6 4 10 2 22 -4 28 -8 8 -13 7 -18 -6z"/>
 <path d="M3110 1231 c-7 -14 -7 -22 1 -26 12 -8 51 24 43 36 -9 15 -33 10 -44 -10z"/>
 <path d="M2991 1176 c-19 -20 -20 -25 -7 -35 17 -14 31 -8 46 19 7 13 6 21 -4 29 -10 8 -18 5 -35 -13z"/>
 <path d="M3256 981 c-15 -16 -25 -34 -22 -40 19 -29 89 7 84 42 -5 32 -30 31 -62 -2z"/>
 <path d="M1805 361 c-8 -14 37 -43 49 -31 6 6 4 15 -4 25 -14 17 -36 20 -45 6z"/>
 </g>
<g id="layer101" fill="#000000" stroke="none">
 <path d="M0 5021 c0 -77 4 -142 9 -146 5 -3 13 -20 16 -38 4 -17 20 -48 35 -67 16 -20 36 -52 46 -73 15 -32 22 -37 52 -37 18 0 42 -5 53 -11 38 -20 120 -27 148 -14 52 26 100 35 140 29 23 -4 41 -10 41 -15 0 -5 0 -12 0 -16 1 -5 -14 -10 -31 -13 -18 -3 -34 -10 -36 -16 -5 -16 107 -26 125 -12 10 9 21 8 45 -4 34 -17 51 -22 157 -42 44 -8 83 -9 120 -3 30 4 69 6 85 2 17 -3 41 -7 55 -8 41 -6 107 -53 118 -86 6 -17 16 -31 21 -31 6 0 13 -11 17 -25 8 -32 43 -42 179 -49 120 -6 155 -2 155 21 0 9 8 13 23 11 16 -2 23 -11 25 -30 7 -62 95 -90 129 -42 52 75 79 108 90 111 20 7 32 -31 44 -133 13 -116 0 -205 -38 -261 -21 -30 -23 -40 -14 -66 15 -41 14 -43 -9 -22 -11 10 -20 28 -20 41 0 25 -35 43 -52 26 -23 -23 24 -203 67 -257 15 -19 17 -18 55 25 22 25 58 83 80 130 102 215 183 338 272 414 136 117 349 159 505 100 37 -14 86 -31 108 -39 78 -25 233 -137 273 -197 15 -24 33 -38 46 -38 16 0 18 -2 7 -9 -12 -8 -12 -14 2 -44 10 -19 17 -43 17 -54 0 -10 9 -31 20 -48 17 -27 19 -43 15 -182 -3 -86 -1 -161 4 -171 18 -31 41 -115 41 -145 0 -50 -27 -91 -87 -130 -30 -20 -61 -37 -68 -37 -12 0 -165 -141 -165 -153 0 -13 55 -7 76 7 27 19 133 56 160 56 32 0 135 -38 167 -61 25 -18 33 -19 57 -9 16 7 32 20 35 30 3 9 19 29 35 44 17 14 30 34 30 44 -1 53 -32 196 -54 246 -14 32 -26 64 -26 71 0 7 -13 43 -30 80 -16 37 -30 77 -30 90 0 12 -7 29 -16 36 -27 22 -65 111 -54 124 8 9 5 14 -7 17 -10 3 -27 21 -38 42 -17 32 -18 38 -5 46 22 14 25 13 37 -20 6 -16 17 -30 25 -30 14 0 88 -103 88 -124 0 -7 11 -23 25 -36 43 -40 82 -113 90 -163 5 -38 11 -50 30 -57 17 -7 24 -17 25 -37 0 -15 2 -107 5 -203 3 -96 2 -199 -1 -228 -5 -50 -7 -53 -23 -38 -10 9 -21 13 -24 9 -13 -12 -7 -100 7 -112 12 -10 18 -34 32 -141 5 -39 -11 -192 -28 -260 -20 -79 -89 -201 -148 -260 -71 -71 -110 -123 -110 -149 0 -11 -9 -26 -20 -34 -11 -7 -29 -35 -41 -62 -21 -48 -63 -94 -86 -95 -8 0 -13 13 -13 34 0 19 -5 38 -10 41 -13 8 -2 54 17 77 8 9 32 20 54 23 21 4 49 15 61 25 20 16 21 19 6 34 -9 9 -21 16 -27 16 -17 0 -33 40 -27 66 9 33 -2 30 -46 -10 -43 -40 -74 -52 -92 -37 -7 6 -37 12 -67 14 -92 5 -239 96 -239 147 0 23 0 23 59 9 49 -11 135 -20 194 -21 20 0 37 -4 37 -9 0 -30 101 6 153 55 21 19 39 26 70 26 l42 0 -30 25 c-16 14 -46 34 -65 45 -19 10 -54 37 -77 58 -102 93 -206 120 -318 83 -33 -11 -58 -20 -55 -21 3 -1 32 -3 65 -6 119 -9 278 -57 301 -92 22 -33 13 -47 -38 -60 -34 -9 -47 -8 -65 3 -34 22 -135 19 -178 -5 -44 -25 -45 -25 -45 -1 0 26 -79 78 -91 59 -7 -10 -12 -11 -26 0 -56 39 -76 44 -115 28 -29 -13 -42 -27 -63 -73 -22 -48 -24 -61 -14 -83 27 -62 230 -198 319 -214 19 -3 46 -9 60 -12 80 -17 129 -20 146 -7 26 19 32 17 49 -18 14 -26 14 -35 3 -60 -14 -31 -28 -38 -28 -14 0 8 -7 15 -15 15 -8 0 -15 -6 -15 -13 0 -18 -56 -58 -73 -51 -19 7 -33 -13 -47 -66 -7 -25 -33 -82 -58 -128 -76 -133 -101 -186 -101 -210 -1 -12 -8 -33 -17 -46 -9 -15 -16 -50 -17 -88 -2 -63 -2 -63 -42 -84 -29 -14 -41 -27 -43 -46 -3 -28 -26 -53 -40 -44 -4 2 -21 30 -36 60 -15 30 -34 60 -42 67 -8 6 -14 21 -14 32 0 43 -23 96 -43 99 -11 2 -23 10 -28 18 -15 28 -48 105 -88 204 -22 55 -45 102 -50 105 -5 3 -19 25 -31 49 -37 70 -51 68 -25 -3 19 -53 20 -115 1 -115 -19 0 -30 16 -61 90 -35 84 -46 96 -74 79 -19 -13 -24 -10 -51 23 -54 65 -70 62 -143 -35 -15 -20 -32 -37 -36 -37 -5 0 -19 21 -31 48 -70 145 -67 141 -86 122 -6 -6 -18 -5 -33 3 -43 22 -61 142 -36 239 6 22 4 28 -8 28 -9 0 -36 16 -61 35 -26 19 -54 35 -64 35 -32 0 -43 58 -41 212 2 174 30 387 64 489 29 87 33 139 10 139 -21 0 -33 -29 -38 -93 -2 -31 -10 -64 -18 -74 -7 -10 -15 -20 -16 -22 -1 -2 -10 2 -19 10 -14 12 -19 10 -40 -16 -14 -17 -30 -48 -36 -70 -15 -50 -48 -105 -103 -170 -23 -27 -54 -73 -68 -101 -14 -28 -33 -54 -41 -57 -8 -3 -22 -33 -32 -67 -9 -34 -31 -80 -48 -103 -40 -54 -66 -113 -56 -123 14 -15 22 -102 10 -109 -6 -4 -8 -21 -5 -38 6 -40 -36 -100 -57 -79 -18 18 -38 15 -38 -5 1 -10 9 -43 20 -73 13 -39 16 -60 9 -73 -7 -12 -6 -36 1 -73 16 -75 2 -108 -57 -136 -55 -26 -56 -55 -2 -50 23 2 40 -2 48 -12 11 -13 9 -17 -13 -27 -14 -7 -26 -19 -26 -27 0 -10 -8 -13 -27 -8 -16 3 -22 3 -15 0 6 -3 12 -11 12 -17 0 -6 8 -19 17 -29 14 -15 18 -48 23 -171 3 -84 11 -161 17 -172 26 -46 37 -104 24 -131 -14 -32 -7 -43 53 -78 43 -25 77 -60 151 -157 22 -28 69 -83 105 -121 79 -84 122 -153 114 -185 -4 -14 2 -32 15 -49 12 -15 21 -31 21 -35 0 -21 62 -107 85 -117 14 -7 47 -32 74 -57 37 -35 47 -50 44 -69 -6 -28 9 -36 87 -47 141 -20 148 -21 153 -39 4 -14 12 -16 68 -9 35 4 91 9 124 10 62 2 67 -2 50 -43 -11 -27 26 -30 90 -8 32 11 63 24 69 29 6 5 29 16 51 25 l40 17 -28 -29 c-32 -34 -34 -42 -6 -42 17 0 96 48 205 125 9 6 17 6 24 -1 13 -13 -28 -100 -72 -150 -44 -50 -9 -45 41 6 26 27 47 40 65 40 20 0 26 5 26 21 0 11 5 17 10 14 6 -4 8 -11 5 -16 -8 -12 -1 -11 30 3 19 8 25 19 25 42 0 45 14 63 34 46 19 -15 18 -15 41 29 l17 33 22 -21 c13 -12 28 -40 35 -61 11 -37 14 -40 39 -34 54 13 72 31 65 67 l-6 32 30 -27 c24 -23 38 -28 81 -28 42 0 50 3 45 16 -4 12 0 14 21 8 41 -10 30 27 -11 40 -13 4 -23 12 -23 17 0 14 48 0 100 -28 31 -17 58 -24 85 -22 22 1 53 -1 69 -6 18 -5 36 -4 46 3 10 6 23 7 30 2 9 -6 22 0 38 16 23 22 104 54 141 54 9 1 27 7 41 16 l25 15 -25 -7 c-34 -10 -147 -11 -156 -1 -13 13 3 18 97 28 120 12 129 15 129 45 0 20 -5 24 -30 24 -19 0 -30 5 -30 14 0 27 148 96 208 96 12 0 22 6 22 14 0 8 14 26 30 39 32 28 39 43 15 33 -18 -6 -20 5 -4 21 15 15 3 33 -21 33 -23 0 -30 18 -18 45 14 31 78 75 108 75 15 0 35 9 44 19 17 19 17 20 -3 31 -12 6 -19 16 -15 22 5 7 -1 9 -20 4 -34 -8 -33 2 5 43 l31 34 -21 16 -21 16 24 26 c13 15 26 37 28 50 3 20 34 48 88 79 11 6 12 13 3 33 -8 18 -22 26 -50 31 -61 10 -68 9 -108 -18 -55 -38 -56 -23 0 28 53 50 52 68 -1 59 -35 -6 -36 -5 -25 16 7 12 21 27 31 34 23 14 27 32 5 23 -17 -6 -19 6 -6 32 5 9 15 44 21 77 7 33 18 71 25 85 7 14 16 67 19 117 6 76 5 97 -8 115 -9 12 -16 32 -16 43 0 12 -11 32 -25 45 -31 29 -33 71 -4 125 22 42 22 50 35 325 6 136 5 160 -10 189 -11 21 -15 43 -11 62 4 16 0 53 -10 84 -8 31 -13 60 -10 65 9 15 -13 58 -34 65 -12 3 -21 13 -21 20 0 8 -9 20 -20 28 -11 8 -17 16 -14 19 3 3 -3 5 -12 5 -13 -2 -19 6 -20 23 -1 14 -12 50 -24 80 -12 30 -28 96 -36 145 -8 50 -24 109 -35 133 -14 28 -20 55 -17 80 4 33 -7 78 -22 92 -10 9 -30 110 -30 154 0 23 -7 51 -15 63 -11 16 -14 58 -14 200 l0 179 32 12 c18 6 64 16 102 23 74 12 111 27 161 65 18 13 54 28 80 34 53 12 104 39 146 78 23 21 42 27 105 32 71 6 154 28 193 52 58 34 89 39 288 49 165 8 216 14 252 29 25 11 68 26 95 33 l50 14 3 307 2 306 -784 0 c-684 0 -785 -2 -796 -15 -7 -8 -21 -15 -32 -15 -10 0 -21 7 -24 15 -4 8 -17 15 -31 15 -19 0 -23 -4 -18 -19 3 -11 1 -22 -5 -26 -7 -4 -7 -12 0 -25 22 -40 -15 -66 -50 -35 -14 12 -23 13 -45 5 -21 -8 -33 -7 -49 4 -40 27 -66 57 -66 76 0 20 -9 20 -370 20 -203 0 -370 -4 -370 -8 0 -5 -29 -30 -64 -56 -99 -73 -152 -136 -201 -239 -24 -51 -61 -122 -83 -160 -22 -37 -54 -102 -72 -145 -18 -42 -40 -95 -50 -117 -9 -22 -25 -69 -35 -105 -22 -77 -40 -104 -32 -45 17 112 18 182 4 236 -26 96 -10 149 96 310 71 108 180 227 277 301 l35 27 -1197 1 -1198 0 0 -139z m1767 -3004 c3 -20 2 -49 -2 -64 l-8 -28 -13 30 c-7 17 -13 52 -14 80 0 44 2 48 15 34 9 -8 18 -32 22 -52z m-372 -460 c8 -18 19 -39 24 -47 17 -28 51 -100 51 -110 0 -6 -9 -10 -19 -10 -29 0 -87 94 -94 151 -9 69 10 77 38 16z m458 -51 c9 -7 17 -21 17 -31 0 -9 11 -30 25 -47 14 -16 25 -35 25 -43 0 -15 -27 -28 -41 -19 -18 11 -41 67 -35 86 2 12 -2 27 -10 35 -28 28 -14 43 19 19z m-204 -66 c9 -28 3 -39 -13 -22 -4 4 -17 7 -29 7 -11 0 -22 6 -24 13 -3 7 1 10 11 6 11 -4 16 -1 16 10 0 27 28 18 39 -14z m1238 -26 c16 -34 0 -72 -23 -54 -7 7 -11 16 -8 21 3 5 0 9 -5 9 -6 0 -11 11 -11 25 0 34 31 33 47 -1z m-198 2 c7 -8 9 -25 6 -39 -5 -19 -2 -26 10 -29 14 -3 14 -5 1 -23 -12 -16 -19 -18 -43 -10 -22 8 -29 18 -31 42 -6 57 29 93 57 59z m619 -438 c-2 -14 -14 -26 -30 -32 -38 -13 -46 -1 -18 29 30 31 53 33 48 3z"/>
 <path d="M2455 4115 c-27 -7 -57 -23 -68 -36 -19 -23 -19 -66 -1 -62 7 1 51 3 100 4 81 1 96 -2 171 -34 45 -19 94 -44 109 -56 20 -16 30 -18 40 -10 9 8 27 2 70 -21 l57 -32 -7 36 c-11 58 -45 124 -74 144 -83 58 -292 93 -397 67z"/>
 <path d="M2575 3863 c-16 -2 -40 -9 -52 -15 -21 -10 -21 -13 -7 -39 16 -32 22 -34 58 -18 39 18 93 3 111 -31 13 -25 18 -28 54 -23 33 5 40 2 46 -16 3 -11 3 -30 0 -41 -7 -22 -45 -28 -45 -6 0 7 -7 19 -16 27 -13 10 -20 10 -44 -4 -32 -19 -43 -17 -117 21 -46 24 -55 25 -86 14 -18 -6 -42 -12 -53 -12 -11 0 -31 -11 -44 -25 -27 -28 -40 -30 -92 -12 -50 18 -52 21 -40 56 10 29 9 31 -12 31 -32 0 -85 -23 -154 -67 -74 -49 -113 -63 -135 -49 -21 13 -42 2 -71 -38 -25 -33 -35 -151 -16 -197 18 -42 138 -149 168 -149 22 0 24 3 18 35 -4 19 -16 60 -27 92 -12 32 -26 79 -32 104 -10 43 -9 48 17 82 l27 35 122 -5 c67 -3 126 -9 130 -13 10 -9 -9 -44 -53 -105 -35 -47 -54 -99 -46 -122 7 -17 23 -15 116 11 90 26 169 17 215 -25 30 -27 111 -60 148 -61 45 -1 66 -13 114 -66 22 -26 45 -44 49 -40 8 8 10 31 18 227 3 68 9 128 14 133 6 6 33 5 68 -3 33 -6 76 -14 97 -16 35 -5 37 -4 37 23 0 16 -15 56 -33 89 -30 55 -40 64 -110 100 -42 22 -105 59 -138 83 -56 38 -66 42 -118 41 -31 -1 -69 -4 -86 -6z"/>
 <path d="M1823 2839 c-18 -5 -33 -13 -33 -17 0 -4 41 -13 91 -20 51 -7 114 -20 141 -29 88 -28 83 8 -7 56 -43 23 -132 27 -192 10z"/>
 <path d="M1622 2732 c-7 -5 -10 -16 -6 -25 8 -22 116 -82 174 -97 25 -7 58 -19 74 -28 21 -11 53 -15 108 -13 43 1 78 -2 78 -7 0 -4 -13 -21 -28 -35 -34 -33 -114 -66 -197 -82 -40 -7 -60 -16 -60 -26 0 -12 25 -14 145 -13 125 1 152 4 193 22 80 36 134 122 107 173 -13 24 -57 25 -82 2 -18 -16 -20 -15 -36 8 -9 13 -17 29 -17 34 0 6 -14 9 -30 8 -31 -2 -101 12 -146 29 -18 6 -40 6 -68 -2 -39 -10 -46 -9 -111 25 -76 38 -79 39 -98 27z"/>
 </g>
<g id="layer102" fill="#ffffff" stroke="none">
 <path d="M2350 5124 c-96 -75 -194 -182 -267 -293 -106 -161 -122 -213 -96 -310 14 -54 13 -124 -4 -236 -8 -59 10 -32 32 45 10 36 26 83 35 105 10 22 32 75 50 117 18 43 50 108 72 145 22 38 59 109 83 160 49 103 102 166 201 239 35 26 64 51 64 56 0 4 -28 8 -62 7 -56 0 -68 -4 -108 -35z"/>
 <path d="M3260 5140 c0 -19 26 -49 66 -76 16 -11 28 -12 49 -4 22 8 31 7 45 -5 34 -31 72 -6 50 34 -6 12 -6 21 1 28 5 5 7 17 3 26 -5 14 -22 17 -110 17 -97 0 -104 -1 -104 -20z"/>
 <path d="M3522 5148 c7 -19 43 -21 58 -3 11 13 8 15 -25 15 -25 0 -35 -4 -33 -12z"/>
 <path d="M0 2441 l0 -2441 2580 0 2580 0 0 2274 0 2275 -63 -18 c-34 -10 -78 -26 -97 -34 -25 -11 -94 -19 -242 -26 -199 -10 -230 -15 -288 -49 -39 -24 -122 -46 -193 -52 -63 -5 -82 -11 -105 -32 -42 -39 -93 -66 -146 -78 -26 -6 -62 -21 -80 -34 -50 -38 -87 -53 -161 -65 -38 -7 -84 -17 -102 -23 l-32 -12 0 -179 c0 -142 3 -184 14 -200 8 -12 15 -40 15 -63 0 -44 20 -145 30 -154 15 -14 26 -59 22 -92 -3 -25 3 -52 17 -80 11 -24 27 -83 35 -133 8 -49 24 -115 36 -145 12 -30 23 -66 24 -80 1 -17 7 -25 20 -24 9 1 15 -1 12 -4 -3 -3 3 -11 14 -19 11 -8 20 -20 20 -28 0 -7 9 -17 21 -20 21 -7 43 -50 34 -65 -3 -5 2 -34 10 -65 10 -31 14 -68 10 -84 -4 -19 0 -41 11 -62 15 -29 16 -53 10 -189 -13 -275 -13 -283 -35 -325 -29 -54 -27 -96 4 -125 14 -13 25 -33 25 -45 0 -11 7 -31 16 -43 13 -18 14 -39 8 -115 -3 -50 -12 -103 -19 -117 -7 -14 -18 -52 -25 -85 -6 -33 -16 -68 -21 -77 -13 -26 -11 -38 6 -32 22 9 18 -9 -5 -23 -10 -7 -24 -22 -31 -34 -11 -21 -10 -22 25 -16 53 9 54 -9 1 -59 -56 -51 -55 -66 0 -28 40 27 47 28 108 18 28 -5 42 -13 50 -31 9 -20 8 -27 -3 -33 -54 -31 -85 -59 -88 -79 -2 -13 -15 -35 -28 -50 l-24 -26 21 -16 21 -16 -31 -34 c-38 -41 -39 -51 -5 -43 19 5 25 3 20 -4 -4 -6 3 -16 15 -22 20 -11 20 -12 3 -31 -9 -10 -29 -19 -44 -19 -30 0 -94 -44 -108 -75 -12 -27 -5 -45 18 -45 24 0 36 -18 21 -33 -16 -16 -14 -27 4 -21 24 10 17 -5 -15 -33 -17 -13 -30 -31 -30 -39 0 -8 -10 -14 -22 -14 -60 0 -208 -69 -208 -96 0 -9 11 -14 30 -14 25 0 30 -4 30 -24 0 -30 -9 -33 -129 -45 -94 -10 -110 -15 -97 -28 9 -10 122 -9 156 1 l25 7 -25 -15 c-14 -9 -32 -15 -41 -16 -37 0 -118 -32 -141 -54 -16 -16 -29 -22 -38 -16 -7 5 -20 4 -30 -2 -10 -7 -28 -8 -46 -3 -16 5 -47 7 -69 6 -27 -2 -54 5 -85 22 -52 28 -100 42 -100 28 0 -5 10 -13 23 -17 41 -13 52 -50 11 -40 -21 6 -25 4 -21 -8 5 -13 -3 -16 -45 -16 -43 0 -57 5 -81 28 l-30 27 6 -32 c7 -36 -11 -54 -65 -67 -25 -6 -28 -3 -39 34 -7 21 -22 49 -35 61 l-22 21 -17 -33 c-23 -44 -22 -44 -41 -29 -20 17 -34 -1 -34 -46 0 -23 -6 -34 -25 -42 -31 -14 -38 -15 -30 -3 3 5 1 12 -5 16 -5 3 -10 -3 -10 -14 0 -16 -6 -21 -26 -21 -18 0 -39 -13 -65 -40 -50 -51 -85 -56 -41 -6 44 50 85 137 72 150 -7 7 -15 7 -24 1 -109 -77 -188 -125 -205 -125 -28 0 -26 8 6 42 l28 29 -40 -17 c-22 -9 -45 -20 -51 -25 -6 -5 -37 -18 -69 -29 -64 -22 -101 -19 -90 8 17 41 12 45 -50 43 -33 -1 -89 -6 -124 -10 -56 -7 -64 -5 -68 9 -5 18 -12 19 -153 39 -78 11 -93 19 -87 47 3 19 -7 34 -44 69 -27 25 -60 50 -74 57 -23 10 -85 96 -85 117 0 4 -9 20 -21 35 -13 17 -19 35 -15 49 8 32 -35 101 -114 185 -36 38 -83 93 -105 121 -74 97 -108 132 -151 157 -60 35 -67 46 -53 78 13 27 2 85 -24 131 -6 11 -14 88 -17 172 -5 123 -9 156 -23 171 -9 10 -17 23 -17 29 0 6 -6 14 -12 17 -7 3 -1 3 15 0 19 -5 27 -2 27 8 0 8 12 20 26 27 22 10 24 14 13 27 -8 10 -25 14 -48 12 -54 -5 -53 24 2 50 59 28 73 61 57 136 -7 37 -8 61 -1 73 7 13 4 34 -9 73 -11 30 -19 63 -20 73 0 20 20 23 38 5 21 -21 63 39 57 79 -3 17 -1 34 5 38 12 7 4 94 -10 109 -10 10 16 69 56 123 17 23 39 69 48 103 10 34 24 64 32 67 8 3 27 29 41 57 14 28 45 74 68 101 55 65 88 120 103 170 6 22 22 53 36 70 21 26 26 28 40 16 9 -8 18 -12 19 -10 1 2 9 12 16 22 8 10 16 43 18 74 5 64 17 93 38 93 23 0 19 -52 -10 -139 -34 -102 -62 -315 -64 -489 -2 -154 9 -212 41 -212 10 0 38 -16 64 -35 25 -19 52 -35 61 -35 12 0 14 -6 8 -27 -25 -98 -7 -218 36 -240 15 -8 27 -9 33 -3 19 19 16 23 86 -122 12 -27 26 -48 31 -48 4 0 21 17 36 37 73 97 89 100 143 35 27 -33 32 -36 51 -23 28 17 39 5 74 -79 31 -74 42 -90 61 -90 19 0 18 62 -1 115 -26 71 -12 73 25 3 12 -24 26 -46 31 -49 5 -3 28 -50 50 -105 40 -99 73 -176 88 -204 5 -8 17 -16 28 -18 20 -3 43 -56 43 -99 0 -11 6 -26 14 -32 8 -7 27 -37 42 -67 15 -30 32 -58 36 -60 14 -9 37 16 40 44 2 19 14 32 43 46 40 21 40 21 42 84 1 38 8 73 17 88 9 13 16 34 17 46 0 24 25 77 101 210 25 46 51 103 58 128 14 53 28 73 47 66 17 -7 73 33 73 51 0 7 7 13 15 13 8 0 15 -7 15 -15 0 -24 14 -17 28 14 11 25 11 34 -3 60 -17 35 -23 37 -49 18 -17 -13 -66 -10 -146 7 -14 3 -41 9 -60 12 -89 16 -292 152 -319 214 -10 22 -8 35 14 83 21 46 34 60 63 73 39 16 59 11 115 -28 14 -11 19 -10 26 0 12 19 91 -33 91 -59 0 -24 1 -24 45 1 43 24 144 27 178 5 18 -11 31 -12 65 -3 51 13 60 27 38 60 -23 35 -182 83 -301 92 -33 3 -62 5 -65 6 -3 1 22 10 55 21 112 37 216 10 318 -83 23 -21 58 -48 77 -58 19 -11 49 -31 65 -45 l30 -25 -42 0 c-31 0 -49 -7 -70 -26 -52 -49 -153 -85 -153 -55 0 5 -17 9 -37 9 -59 1 -145 10 -194 21 -59 14 -59 14 -59 -9 0 -51 147 -142 239 -147 30 -2 60 -8 67 -14 18 -15 49 -3 92 37 44 40 55 43 46 10 -6 -26 10 -66 27 -66 6 0 18 -7 27 -16 15 -15 14 -18 -6 -34 -12 -10 -40 -21 -61 -25 -22 -3 -46 -14 -54 -23 -19 -23 -30 -69 -17 -77 5 -3 10 -22 10 -41 0 -21 5 -34 13 -34 23 1 65 47 86 95 12 27 30 55 41 62 11 8 20 23 20 34 0 26 39 78 110 149 59 59 128 181 148 260 17 68 33 221 28 260 -14 107 -20 131 -32 141 -14 12 -20 100 -7 112 3 4 14 0 24 -9 16 -15 18 -12 23 38 3 29 4 132 1 228 -3 96 -5 188 -5 203 -1 20 -8 30 -25 37 -19 7 -25 19 -30 57 -8 50 -47 123 -90 163 -14 13 -25 29 -25 36 0 21 -74 124 -88 124 -8 0 -19 14 -25 30 -12 33 -15 34 -37 20 -13 -8 -12 -14 5 -46 11 -21 28 -39 38 -42 12 -3 15 -8 7 -17 -11 -13 27 -102 54 -124 9 -7 16 -24 16 -36 0 -13 14 -53 30 -90 17 -37 30 -73 30 -80 0 -7 12 -39 26 -71 22 -50 53 -193 54 -246 0 -10 -13 -30 -30 -44 -16 -15 -32 -35 -35 -44 -3 -10 -19 -23 -35 -30 -24 -10 -32 -9 -57 9 -32 23 -135 61 -167 61 -27 0 -133 -37 -160 -56 -21 -14 -76 -20 -76 -7 0 12 153 153 165 153 7 0 38 17 68 37 60 39 87 80 87 130 0 30 -23 114 -41 145 -5 10 -7 85 -4 171 4 139 2 155 -15 182 -11 17 -20 38 -20 48 0 11 -7 35 -17 54 -14 30 -14 36 -2 44 11 7 9 9 -7 9 -13 0 -31 14 -46 38 -40 60 -195 172 -273 197 -22 8 -71 25 -108 39 -81 31 -181 34 -287 10 -202 -46 -327 -179 -490 -524 -22 -47 -58 -105 -80 -130 -38 -43 -40 -44 -55 -25 -43 54 -90 234 -67 257 17 17 52 -1 52 -26 0 -13 9 -31 20 -41 23 -21 24 -19 9 22 -9 26 -7 36 14 66 38 56 51 145 38 261 -12 102 -24 140 -44 133 -11 -3 -38 -36 -90 -111 -34 -48 -122 -20 -129 42 -2 19 -9 28 -25 30 -15 2 -23 -2 -23 -11 0 -23 -35 -27 -155 -21 -136 7 -171 17 -179 49 -4 14 -11 25 -17 25 -5 0 -15 14 -21 31 -11 33 -77 80 -118 86 -14 1 -38 5 -55 8 -16 4 -55 2 -85 -2 -37 -6 -76 -5 -120 3 -106 20 -123 25 -157 42 -24 12 -35 13 -45 4 -18 -14 -130 -4 -125 12 2 6 18 13 36 16 17 3 32 8 31 13 0 4 0 11 0 16 0 5 -18 11 -41 15 -40 6 -88 -3 -140 -29 -28 -13 -110 -6 -148 14 -11 6 -35 11 -53 11 -30 0 -37 5 -52 37 -10 21 -30 53 -46 73 -15 19 -31 50 -35 67 -3 18 -11 35 -16 38 -5 4 -9 -946 -9 -2434z m2685 1669 c70 -16 135 -40 167 -62 29 -20 63 -86 74 -144 l7 -36 -57 32 c-43 23 -61 29 -70 21 -10 -8 -20 -6 -40 10 -15 12 -64 37 -109 56 -75 32 -90 35 -171 34 -49 -1 -93 -3 -100 -4 -18 -4 -18 39 1 62 36 45 169 58 298 31z m94 -282 c33 -24 96 -61 138 -83 70 -36 80 -45 110 -100 18 -33 33 -73 33 -89 0 -27 -2 -28 -37 -23 -21 2 -64 10 -97 16 -35 8 -62 9 -68 3 -5 -5 -11 -65 -14 -133 -8 -196 -10 -219 -18 -227 -4 -4 -27 14 -49 40 -48 53 -69 65 -114 66 -37 1 -118 34 -148 61 -46 42 -125 51 -215 25 -93 -26 -109 -28 -116 -11 -8 23 11 75 46 122 44 61 63 96 53 105 -4 4 -63 10 -130 13 l-122 5 -27 -35 c-26 -34 -27 -39 -17 -82 6 -25 20 -72 32 -104 11 -32 23 -73 27 -92 6 -32 4 -35 -18 -35 -30 0 -150 107 -168 149 -19 46 -9 164 16 197 29 40 50 51 71 38 22 -14 61 0 135 49 69 44 122 67 154 67 21 0 22 -2 12 -31 -12 -35 -10 -38 40 -56 52 -18 65 -16 92 12 13 14 33 25 44 25 11 0 35 6 53 12 31 11 40 10 86 -14 74 -38 85 -40 117 -21 24 14 31 14 44 4 9 -8 16 -20 16 -27 0 -22 38 -16 45 6 3 11 3 30 0 41 -6 18 -13 21 -46 16 -36 -5 -41 -2 -54 23 -18 34 -72 49 -111 31 -36 -16 -42 -14 -58 18 -14 26 -14 29 7 39 26 13 61 18 138 21 52 1 62 -3 118 -41z m-764 -999 c90 -48 95 -84 7 -56 -27 9 -90 22 -141 29 -50 7 -91 16 -91 20 0 13 62 26 125 27 43 1 71 -5 100 -20z m-295 -124 c65 -34 72 -35 111 -25 28 8 50 8 68 2 45 -17 115 -31 146 -29 16 1 30 -2 30 -8 0 -5 8 -21 17 -34 16 -23 18 -24 36 -8 25 23 69 22 82 -2 27 -51 -27 -137 -107 -173 -41 -18 -68 -21 -193 -22 -120 -1 -145 1 -145 13 0 10 20 19 60 26 83 16 163 49 197 82 15 14 28 31 28 35 0 5 -35 8 -78 7 -55 -2 -87 2 -108 13 -16 9 -49 21 -74 28 -58 15 -166 75 -174 97 -6 15 8 32 26 33 5 0 39 -16 78 -35z"/>
 <path d="M1730 2035 c1 -28 7 -63 14 -80 l13 -30 8 28 c10 37 0 97 -20 116 -13 14 -15 10 -15 -34z"/>
 <path d="M1357 1593 c-4 -3 -4 -26 0 -52 7 -57 65 -151 94 -151 10 0 19 4 19 10 0 10 -34 82 -51 110 -5 8 -16 29 -24 47 -16 34 -29 46 -38 36z"/>
 <path d="M1820 1511 c0 -5 6 -16 14 -24 8 -8 12 -23 10 -35 -6 -19 17 -75 35 -86 14 -9 41 4 41 19 0 8 -11 27 -25 43 -14 17 -25 38 -25 47 0 10 -8 24 -17 31 -21 16 -33 18 -33 5z"/>
 <path d="M1610 1454 c0 -11 -5 -14 -16 -10 -10 4 -14 1 -11 -6 2 -7 13 -13 24 -13 12 0 25 -3 29 -7 16 -17 22 -6 13 22 -11 32 -39 41 -39 14z"/>
 <path d="M2840 1415 c0 -14 5 -25 11 -25 5 0 8 -4 5 -9 -3 -5 1 -14 8 -21 23 -18 39 20 23 54 -16 34 -47 35 -47 1z"/>
 <path d="M2640 1410 c-6 -12 -10 -35 -8 -53 2 -24 9 -34 31 -42 24 -8 31 -6 43 10 13 18 13 20 -1 23 -12 3 -15 10 -10 29 11 46 -34 72 -55 33z"/>
 <path d="M3260 975 c-28 -30 -20 -42 18 -29 16 6 28 18 30 32 5 30 -18 28 -48 -3z"/>
 </g>

</svg>